<?xml version="1.0" encoding="UTF-8" standalone="no"?>
<!-- Created with Inkscape (http://www.inkscape.org/) -->

<svg
   xmlns:dc="http://purl.org/dc/elements/1.1/"
   xmlns:cc="http://creativecommons.org/ns#"
   xmlns:rdf="http://www.w3.org/1999/02/22-rdf-syntax-ns#"
   xmlns:svg="http://www.w3.org/2000/svg"
   xmlns="http://www.w3.org/2000/svg"
   xmlns:sodipodi="http://sodipodi.sourceforge.net/DTD/sodipodi-0.dtd"
   xmlns:inkscape="http://www.inkscape.org/namespaces/inkscape"
   width="744.09448"
   height="579"
   id="svg2"
   version="1.1"
   inkscape:version="0.47pre2 r22153"
   sodipodi:docname="jcouchdb.svg"
   inkscape:export-filename="/home/shelmberger/Desktop/jcouchdb.png"
   inkscape:export-xdpi="9.3814716"
   inkscape:export-ydpi="9.3814716">
  <defs
     id="defs4">
    <inkscape:perspective
       sodipodi:type="inkscape:persp3d"
       inkscape:vp_x="0 : 526.18109 : 1"
       inkscape:vp_y="0 : 1000 : 0"
       inkscape:vp_z="744.09448 : 526.18109 : 1"
       inkscape:persp3d-origin="372.04724 : 350.78739 : 1"
       id="perspective10" />
    <inkscape:perspective
       id="perspective2884"
       inkscape:persp3d-origin="0.5 : 0.33333333 : 1"
       inkscape:vp_z="1 : 0.5 : 1"
       inkscape:vp_y="0 : 1000 : 0"
       inkscape:vp_x="0 : 0.5 : 1"
       sodipodi:type="inkscape:persp3d" />
    <inkscape:perspective
       id="perspective6135"
       inkscape:persp3d-origin="0.5 : 0.33333333 : 1"
       inkscape:vp_z="1 : 0.5 : 1"
       inkscape:vp_y="0 : 1000 : 0"
       inkscape:vp_x="0 : 0.5 : 1"
       sodipodi:type="inkscape:persp3d" />
    <filter
       inkscape:collect="always"
       id="filter3833">
      <feGaussianBlur
         inkscape:collect="always"
         stdDeviation="6.0852135"
         id="feGaussianBlur3835" />
    </filter>
  </defs>
  <sodipodi:namedview
     id="base"
     pagecolor="#ffffff"
     bordercolor="#666666"
     borderopacity="1.0"
     inkscape:pageopacity="1"
     inkscape:pageshadow="2"
     inkscape:zoom="1"
     inkscape:cx="313.82791"
     inkscape:cy="200.60262"
     inkscape:document-units="px"
     inkscape:current-layer="layer1"
     showgrid="false"
     inkscape:window-width="1680"
     inkscape:window-height="967"
     inkscape:window-x="0"
     inkscape:window-y="26"
     inkscape:window-maximized="1" />
  <metadata
     id="metadata7">
    <rdf:RDF>
      <cc:Work
         rdf:about="">
        <dc:format>image/svg+xml</dc:format>
        <dc:type
           rdf:resource="http://purl.org/dc/dcmitype/StillImage" />
        <dc:title></dc:title>
      </cc:Work>
    </rdf:RDF>
  </metadata>
  <g
     inkscape:label="Ebene 1"
     inkscape:groupmode="layer"
     id="layer1"
     transform="translate(0,-473.36217)">
    <path
       style="color:#000000;fill:#bd0f1f;fill-opacity:1;stroke:none;stroke-width:4.63358593;marker:none;visibility:visible;display:inline;overflow:visible;enable-background:accumulate"
       d="m 609.05953,620.83603 c -9.99755,0 -125.23407,0.1807 -240.62674,0.47726 -57.69634,0.14828 -115.31737,0.32169 -159.58263,0.50708 -22.13264,0.0927 -40.91132,0.2006 -54.73535,0.29829 -13.82403,0.0977 -20.21979,0.0481 -26.09996,0.32811 -14.50856,0.69088 -30.310933,5.33101 -42.446001,16.88295 -12.135068,11.55193 -17.598832,28.48285 -17.598832,42.56531 0,3.10804 -0.282147,34.69836 -0.507085,59.89568 -3.781155,1.27538 -7.608961,2.87012 -11.513812,5.04102 -14.205864,7.89777 -26.706002,25.37432 -29.410929,42.50566 -0.158422,0.97907 -0.277862,1.96445 -0.357942,2.95302 -0.724591,9.4195 -0.700727,21.80627 -0.775542,40.32817 -0.07481,18.52191 -0.0095,41.09344 0.08949,63.02768 0.197989,43.8685 0.596571,85.13062 0.596571,85.13062 0.09178,9.58176 4.037816,19.07232 10.766563,25.89452 6.728746,6.8222 16.163978,10.8988 25.743555,11.1227 l 67.919554,1.5809 476.33177,0 74.24321,0 c 9.78405,0 19.50682,-4.0316 26.42519,-10.95 6.91837,-6.9183 10.94725,-16.64109 10.94996,-26.42515 0,-15.0698 -1.19314,-178.58312 -1.19314,-186.78624 -9.6e-4,-3.52709 -0.50514,-7.0536 -1.49143,-10.43999 -5.93191,-20.40309 -18.81248,-29.75039 -31.58841,-36.74874 -3.21282,-1.75991 -6.54375,-3.35125 -9.99256,-4.71291 -0.0848,-4.5959 -0.1643,-8.514 -0.23863,-13.54215 -0.29435,-19.91332 -0.50708,-41.53946 -0.50708,-47.87479 0,-14.28374 -4.77364,-33.11105 -18.85163,-45.69731 -14.07799,-12.58625 -31.01425,-15.36169 -45.54816,-15.36169 z"
       id="path3680"
       sodipodi:nodetypes="csssssscsccsscsccccscccscsssc" />
    <path
       style="color:#000000;fill:#f71e08;fill-opacity:1;stroke:#ff6363;stroke-width:4.42281771;stroke-linecap:butt;stroke-linejoin:miter;stroke-miterlimit:4;stroke-opacity:1;stroke-dasharray:none;stroke-dashoffset:0;marker:none;visibility:visible;display:inline;overflow:visible;enable-background:accumulate"
       d="m 637.65267,771.13773 c -0.78979,-3.94892 -1.57961,-75.1741 -1.57961,-89.24587 0,-15.99202 -8.0626,-23.69392 -27.01752,-23.69392 -18.95495,0 -462.65156,0.78978 -479.23713,1.57956 -16.58557,0.78979 -24.48348,9.47775 -24.48348,22.11436 0,12.63661 -1.57957,175.33288 -1.57957,175.33288 l 256.68138,39.48943 281.95467,-33.17113 -4.73874,-92.40531 z"
       id="path2892"
       sodipodi:nodetypes="csssscccc" />
    <path
       style="color:#000000;fill:#bb1305;stroke:none;stroke-width:1;stroke-linecap:butt;stroke-linejoin:miter;stroke-miterlimit:4;stroke-opacity:1;stroke-dasharray:none;stroke-dashoffset:0;marker:none;visibility:visible;display:inline;overflow:visible;enable-background:accumulate;fill-opacity:1"
       d="m 118,307 14,10 56,59 -60,41 -30,-62 20,-48 z"
       id="path2853"
       transform="translate(0,473.36217)" />
    <path
       sodipodi:nodetypes="cczccscczccccsccc"
       id="path3716"
       d="m 681.09102,982.01136 c 0,-12.73493 -1.18465,-175.86022 -1.18465,-186.78507 -3.11353,-10.70914 -20.70458,-20.98661 -37.90988,-20.14151 -17.20528,0.84516 -33.07626,7.88111 -35.1456,20.14151 -0.39496,8.29274 0,57.25971 0,57.25971 0,0 -245.38501,20.63704 -311.17682,17.37535 -57.58928,-2.85502 -161.11693,-30.01196 -161.11693,-30.01196 0,0 -1.18469,-24.02793 -1.18469,-44.6231 -5.52852,-15.06663 -20.32236,-20.14151 -37.515002,-20.14151 -17.192642,0 -30.011959,5.05657 -32.381306,20.06257 -1.57961,20.53453 0,185.28444 0,185.28444 l 67.921828,1.57957 0,-56.6618 c 0,0 74.24014,21.32427 161.11693,22.90387 86.87679,1.57957 314.33599,-21.3243 314.33599,-21.3243 l 0,55.08223 74.24013,0 z"
       style="color:#000000;fill:#f71e08;fill-opacity:1;stroke:none;stroke-width:4.42281771000000035;stroke-linecap:butt;stroke-linejoin:miter;stroke-miterlimit:4;stroke-opacity:1;stroke-dasharray:none;stroke-dashoffset:0;marker:none;visibility:visible;display:inline;overflow:visible;enable-background:accumulate" />
    <path
       style="color:#000000;fill:none;fill-opacity:1;stroke:#ff6363;stroke-width:4.42281771000000035;stroke-linecap:butt;stroke-linejoin:miter;stroke-miterlimit:4;stroke-opacity:1;stroke-dasharray:none;stroke-dashoffset:0;marker:none;visibility:visible;display:inline;overflow:visible;enable-background:accumulate"
       d="m 681.09102,982.01136 c 0,-12.73493 -1.18465,-175.86022 -1.18465,-186.78507 -3.11353,-10.70914 -20.70458,-20.98661 -37.90988,-20.14151 -17.20528,0.84516 -33.07626,7.88111 -35.1456,20.14151 -0.39496,8.29274 0,57.25971 0,57.25971 0,0 -245.38501,20.63704 -311.17682,17.37535 -57.58928,-2.85502 -161.11693,-30.01196 -161.11693,-30.01196 0,0 -1.18469,-24.02793 -1.18469,-44.6231 -5.52852,-15.06663 -20.32236,-20.14151 -37.515002,-20.14151 -17.192642,0 -30.011959,5.05657 -32.381306,20.06257 -1.57961,20.53453 0,185.28444 0,185.28444 l 67.921828,1.57957 0,-56.6618 c 0,0 74.24014,21.32427 161.11693,22.90387 86.87679,1.57957 314.33599,-21.3243 314.33599,-21.3243 l 0,55.08223 74.24013,0 z"
       id="path2890"
       sodipodi:nodetypes="cczccscczccccsccc" />
    <path
       style="fill:#000000;fill-opacity:0.23437500000000000;fill-rule:nonzero;stroke:none;filter:url(#filter3833)"
       d="M 229.46875,509.21875 C 212.43331,567.49955 214.8938,629.0136 210.90625,689 c 6.88982,15.29466 -1.39451,32.92107 -13.625,42.84375 -8.71777,7.98706 -19.66994,13.11166 -31.03125,16.1875 -15.07985,5.74925 -29.12656,20.76684 -26,38.03125 3.68984,14.358 15.55373,24.80445 26.125,34.46875 15.35853,12.95425 32.51468,27.19753 36.41538,47.84869 7.99,32.41647 -4.16719,66.77553 5.77212,98.87006 4.64594,11.90876 18.90766,18.3071 30.8125,13.75 11.8572,-3.60068 20.20555,-14.06644 23.78125,-25.59375 11.02834,-21.39356 21.16353,-46.52852 44.125,-57.375 22.17762,-11.12303 48.62222,-6.96585 70.4375,2.96875 14.44753,6.71388 28.81834,14.13606 40.96875,24.4375 12.8032,9.02472 19.4338,6.13833 32.25,-5.0625 20.34367,-28.0223 31.14366,-43.86539 19,-76.78125 -19.09342,-18.28019 -13.62146,-82.30766 -23.28125,-108.3125 -12.06838,-21.75727 -37.1806,-29.91982 -58.21875,-40.625 -41.41909,-27.96523 -60.59916,-76.20185 -89.95166,-114.85651 -20.79681,-26.24241 -41.5076,-52.90713 -68.17334,-73.45599 -0.28125,0.95833 -0.5625,1.91667 -0.84375,2.875 z M 389.4375,718.625 c 29.75198,7.24548 49.96773,37.28155 51.1875,66.9375 -0.22441,7.48676 -7.4945,13.90861 -14.9375,11.15625 -9.49523,-2.40753 -15.94479,-11.56386 -16.93451,-20.97759 -8.24789,-18.41537 -10.51608,-38.99362 -19.59674,-57.14741 l 0.28125,0.0312 0,5e-5 z m -180.59375,30.53125 c 10.09515,16.18045 2.187,37.95942 -12.21875,48.8125 -6.75594,5.06517 -16.27558,8.85119 -24.53125,5.71875 -10.40261,-5.25173 -12.98226,-18.92742 -7.9375,-28.84375 5.13663,-11.86056 16.64397,-21.05209 29.70144,-21.99532 4.88151,-1.52543 9.99852,-2.83142 14.98606,-3.69218 z M 459.5,865.21875 c 2.90063,2.60612 3.21875,8.49094 -1.625,9.0625 -2.4685,0.98813 -7.86634,-0.30289 -5,-3.625 1.73724,-2.21774 4.32448,-4.84924 6.625,-5.4375 z"
       id="path3629"
       sodipodi:nodetypes="ccccccccccccccccccccccccccccccccccccc" />
    <path
       style="fill:#ffffff;fill-opacity:1;stroke:none"
       d="m 194,501.36217 144,0 0,120 -144,0 0,-120 z"
       id="rect3693" />
    <path
       id="path4280"
       style="fill:#100f0d;fill-opacity:1;fill-rule:nonzero;stroke:none"
       d="m 435.59489,821.97343 c -7.31665,9.71935 -15.78754,1.31166 -19.73315,-6.54478 -2.32577,-4.62554 -7.41084,-25.4684 -6.47122,-28.98183 3.04664,-11.40753 18.38767,-4.19594 23.65006,4.13893 4.84175,7.67006 9.05411,25.05291 2.95052,32.48725" />
    <path
       id="path4282"
       style="fill:#100f0d;fill-opacity:1;fill-rule:nonzero;stroke:none"
       d="m 461.23976,774.56921 c 39.90796,25.05391 -3.67329,59.02012 -4.36997,89.39736 -0.19858,8.63875 4.20066,18.76742 -7.62623,8.98786 -4.96064,-4.09913 -8.25544,-14.29329 -8.8226,-20.37776 -1.29981,-13.92163 17.78376,-34.91199 10.5788,-45.90279 -1.28648,-0.0649 -4.32259,0.34491 -5.50472,0.74267 -3.4783,8.76376 -0.17271,16.52871 -0.76017,25.19628 -0.34849,5.14982 -0.83099,22.03804 -3.46351,25.79634 -14.40091,20.55726 -18.47752,-38.89268 -18.79384,-45.36439 -0.46962,-9.624 -2.49472,-19.97287 -5.27675,-29.10648 -2.20265,-7.23325 -13.88031,-20.93608 -12.7086,-27.44676 5.11558,-28.44884 48.63985,11.17626 56.74759,18.07767 1.51792,1.29205 -1.27283,-0.81783 0,0" />
    <path
       id="path4284"
       style="fill:#949595;fill-opacity:1;fill-rule:nonzero;stroke:none"
       d="m 461.23976,774.56921 0.31139,-0.49514 c 8.53517,5.35663 13.35431,11.1721 15.56647,17.31543 2.05688,5.705 1.84963,11.64553 0.40482,17.67425 -2.1698,9.04627 -7.10928,18.33951 -11.53524,27.60799 -4.43048,9.26419 -8.337,18.49541 -8.53359,27.3086 -0.0655,2.80064 0.3698,5.81273 0.55855,8.25609 0.094,1.22479 0.12892,2.30613 -0.0131,3.19736 -0.0736,0.44657 -0.1924,0.85006 -0.4034,1.20365 -0.20707,0.35217 -0.53161,0.65019 -0.93981,0.79428 -0.41158,0.14711 -0.868,0.14504 -1.35693,0.0362 -1.45962,-0.33938 -3.41409,-1.58248 -6.42755,-4.06332 -2.89677,-2.40415 -5.14888,-6.63175 -6.72051,-10.97688 -1.25197,-3.47774 -2.0533,-7.0288 -2.31126,-9.79604 -0.317,-3.42129 0.53845,-7.16414 1.89719,-11.04677 2.04166,-5.82228 5.24021,-11.97236 7.52691,-17.70777 2.30125,-5.73622 3.6313,-11.02895 2.17318,-15.02613 -0.23385,-0.64896 -0.53984,-1.26748 -0.92597,-1.85713 l 0.4888,-0.32004 -0.0301,0.58378 c -1.14569,-0.0696 -4.24648,0.35016 -5.28856,0.7123 l -0.186,-0.55342 0.54362,0.21526 c -1.69317,4.26439 -1.74117,8.28328 -1.42528,12.3729 0.31316,4.08614 1.00221,8.22685 0.70418,12.64752 -0.17246,2.55721 -0.3808,8.07954 -0.87674,13.43389 -0.24728,2.67916 -0.56659,5.31896 -0.99315,7.54173 -0.43348,2.22824 -0.9424,4.02057 -1.69781,5.11654 -1.64244,2.33733 -3.17523,3.72676 -4.71516,4.28906 -0.92013,0.33394 -1.8473,0.34357 -2.69445,0.0522 -1.27645,-0.43656 -2.35094,-1.47429 -3.30742,-2.89294 -0.95701,-1.42442 -1.80243,-3.25564 -2.56598,-5.37464 -4.7358,-13.1659 -6.36813,-37.67968 -6.57303,-41.74547 -0.46502,-9.56183 -2.48129,-19.8738 -5.25212,-28.96396 -0.0604,-0.20087 -0.12957,-0.409 -0.20719,-0.62445 -1.0057,-2.79761 -3.31886,-6.57424 -5.69121,-10.47649 -2.37258,-3.91106 -4.80443,-7.95365 -6.06339,-11.43928 -0.68219,-1.90637 -1.03286,-3.65316 -0.76354,-5.17956 0.49938,-2.77444 1.36209,-4.9525 2.54753,-6.60567 1.18412,-1.65268 2.70058,-2.76611 4.43431,-3.38785 3.68834,-1.31834 8.25831,-0.50296 13.15631,1.43689 7.34832,2.91964 15.49133,8.4443 22.43596,13.76551 6.93924,5.31869 12.67856,10.44191 15.12817,12.52777 0.16871,0.14255 0.28597,0.24575 0.37047,0.32366 l 0.10891,0.10478 0.0535,0.0625 c 0.0223,0.032 0.0501,0.0487 0.10378,0.18081 0.0152,0.0553 0.0532,0.1441 0.0227,0.31836 -0.0212,0.17984 -0.22282,0.39495 -0.37516,0.43352 -0.23067,0.0683 -0.30166,0.0197 -0.35748,0.0131 l -0.14582,-0.0588 -0.241,-0.15806 c -0.12807,-0.0919 -0.27927,-0.20663 -0.40854,-0.30994 l -0.17493,-0.14773 -0.0798,-0.0768 -0.0516,-0.0599 -0.0961,-0.17167 c -0.0192,-0.0598 -0.0582,-0.16159 -0.0179,-0.34235 0.034,-0.18589 0.23302,-0.37488 0.37174,-0.41003 0.23903,-0.0698 0.30034,-0.0192 0.35698,-0.0144 l 0.14796,0.0565 c 0.0949,0.0491 0.19036,0.10802 0.34871,0.2098 l -0.31592,0.49085 0.3114,-0.49514 -0.3114,0.49514 -0.31412,0.49166 -0.22147,-0.13689 -0.0183,-0.01 0.11516,-0.22409 -0.087,0.23621 -0.0282,-0.0122 0.11518,-0.2241 -0.0871,0.23621 0.17869,-0.48444 -0.0946,0.50758 -0.0841,-0.0231 0.1787,-0.48444 -0.0946,0.50759 0.10479,-0.56172 0.19466,0.53693 c -0.17828,0.0572 -0.25108,0.0281 -0.29974,0.0249 l 0.10477,-0.56173 0.19465,0.53693 -0.19692,-0.54651 0.56258,0.14017 c -0.033,0.18408 -0.23086,0.37261 -0.36566,0.40634 l -0.19692,-0.54651 0.56257,0.14017 -0.55947,-0.13979 0.54256,-0.19551 c 0.0188,0.0586 0.0564,0.1563 0.0169,0.3353 l -0.55947,-0.13979 0.54256,-0.19551 -0.49263,0.17752 0.39626,-0.34612 c 0.01,0.0214 0.0349,0.0186 0.0964,0.16863 l -0.49264,0.17751 0.39626,-0.34612 -0.12199,0.10635 0.11202,-0.11756 0.01,0.0114 -0.122,0.10635 0.11201,-0.11754 c 0.0316,0.033 0.22179,0.18725 0.37611,0.30234 l 0.20279,0.14658 0.0405,0.0255 -0.18106,0.31311 0.14174,-0.33161 0.0393,0.0185 -0.18105,0.31311 0.14174,-0.33158 -0.20938,0.494 0.12166,-0.52325 0.0877,0.0292 -0.20937,0.49402 0.12165,-0.52328 -0.13049,0.56059 -0.19502,-0.54124 c 0.20046,-0.0616 0.27458,-0.0247 0.32551,-0.0194 l -0.13049,0.56059 -0.19502,-0.54124 0.19739,0.54781 -0.57087,-0.11787 c 0.0204,-0.17807 0.22067,-0.39269 0.37348,-0.42994 l 0.19739,0.54781 -0.57087,-0.11787 0.56646,0.11798 -0.54387,0.19597 c -0.0172,-0.0546 -0.0517,-0.14016 -0.0227,-0.31394 l 0.56646,0.11798 -0.54388,0.19597 0.50185,-0.18082 -0.41734,0.33297 c -0.0117,-0.0196 -0.0334,-0.0281 -0.0845,-0.15213 l 0.50183,-0.18083 -0.41731,0.33298 0.1957,-0.15691 -0.18267,0.17269 -0.013,-0.016 0.1957,-0.15691 -0.18267,0.1727 c -0.0112,-0.0138 -0.14702,-0.13998 -0.39219,-0.34702 -3.2911,-2.80235 -12.35072,-10.9326 -22.29979,-17.73751 -4.9721,-3.40183 -10.16529,-6.46575 -14.9385,-8.36001 -4.77426,-1.90131 -9.10597,-2.59504 -12.32911,-1.42325 -1.52314,0.55121 -2.82167,1.49913 -3.88076,2.97165 -1.05819,1.47076 -1.87066,3.47932 -2.34654,6.12954 -0.21833,1.18592 0.0579,2.77249 0.71282,4.57741 1.19078,3.31127 3.59103,7.32962 5.96114,11.22973 2.37116,3.90712 4.70798,7.69007 5.79214,10.68651 0.0833,0.23119 0.159,0.45774 0.22707,0.67961 2.79408,9.17529 4.82765,19.56416 5.30092,29.24768 0.18889,3.98845 1.86171,28.547 6.50435,41.40659 0.98818,2.74902 2.11853,4.95256 3.32726,6.26398 0.60376,0.65818 1.21573,1.08776 1.82274,1.29355 0.60738,0.20267 1.21961,0.2047 1.92387,-0.0446 1.17108,-0.41604 2.58952,-1.6203 4.15391,-3.86123 0.56108,-0.78253 1.10072,-2.51024 1.50811,-4.66672 1.25017,-6.49887 1.59136,-16.95382 1.8512,-20.83382 0.29073,-4.24735 -0.38083,-8.32311 -0.70406,-12.47836 -0.32132,-4.15001 -0.28233,-8.39572 1.5046,-12.89425 l 0.0995,-0.25108 0.25672,-0.0866 c 1.32265,-0.43207 4.29359,-0.8332 5.72134,-0.77177 l 0.29499,0.0155 0.16318,0.24697 c 0.43661,0.66792 0.7835,1.37115 1.04671,2.10155 1.085,3.02434 0.76686,6.49047 -0.23361,10.17276 -1.50729,5.52582 -4.57866,11.60039 -7.1428,17.51741 -2.56913,5.91139 -4.60677,11.66246 -4.15741,16.37785 0.24604,2.63943 1.02743,6.12198 2.24777,9.50869 1.51947,4.23332 3.75147,8.3227 6.36696,10.47345 1.96862,1.62838 3.4761,2.68968 4.5857,3.2769 0.55304,0.29497 1.00647,0.47001 1.35103,0.54473 0.34552,0.0774 0.56938,0.056 0.70685,0.006 0.13722,-0.0518 0.2293,-0.12566 0.33429,-0.29565 0.18553,-0.29245 0.31305,-0.90242 0.32889,-1.71113 0.0674,-2.44512 -0.72096,-6.52778 -0.63695,-10.37262 0.29066,-12.18519 7.27988,-24.74917 13.12174,-37.04963 2.92521,-6.14659 5.56854,-12.22276 6.97918,-18.11154 1.40969,-5.8914 1.58985,-11.57427 -0.36751,-17.00642 -2.10756,-5.84558 -6.70376,-11.45344 -15.0897,-16.72134 l -0.004,-0.004 0,0 0.31412,-0.49168" />
    <path
       id="path4286"
       style="fill:#100f0d;fill-opacity:1;fill-rule:nonzero;stroke:none"
       d="m 330.34837,682.11114 c 6.381,10.48 14.32945,17.28353 17.75456,15.19618 3.4263,-2.08335 1.03148,-12.27021 -5.34687,-22.75102 -6.3806,-10.47865 -14.32812,-17.28393 -17.75497,-15.19749 -3.42591,2.08467 -1.0324,12.27194 5.34728,22.75233" />
    <path
       id="path4288"
       style="fill:#100f0d;fill-opacity:1;fill-rule:nonzero;stroke:none"
       d="m 342.76287,680.52049 c 13.95165,0.8019 63.46853,15.56662 76.75758,51.38882 0.39394,6.57584 3.41938,14.79421 5.48148,20.15448 3.23547,8.41067 -9.90768,13.12728 -13.13698,4.7337 -4.73314,-12.30748 -8.73298,-17.69386 -14.76371,-28.49431 -8.25651,-14.78658 -44.35645,-27.73677 -44.35645,-27.73677 0,0 -16.0992,-5.49404 -11.65758,-13.34328"
       sodipodi:nodetypes="ccscscc" />
    <path
       id="path4290"
       style="fill:#ffffff;fill-opacity:1;fill-rule:nonzero;stroke:none"
       d="m 181.04664,701.36694 c 2.43473,-33.93754 124.82635,-76.87429 151.04469,-37.75182 27.9962,41.77685 32.30086,86.67209 50.08469,116.61926 40.85426,23.5787 58.66273,97.66979 54.79947,129.24612 -4.87685,39.86937 -94.28803,-60.69684 -160.66678,-35.21918 -29.4165,11.29093 -73.23418,117.72842 -90.3078,99.69066 0,0 -4.55751,-20.32283 -6.33845,-70.42217 -1.78094,-50.09935 -0.7853,-129.97524 1.38418,-202.16287"
       sodipodi:nodetypes="ccccccsc" />
    <path
       id="path4294"
       style="fill:#e7e2e1;fill-opacity:1;fill-rule:nonzero;stroke:none"
       d="m 217.60149,847.14422 c 22.19081,23.29715 74.2336,4.23109 106.1648,8.1104 19.26109,-5.7155 27.27157,-12.28579 30.40318,-20.60267 7.97758,-21.18671 -35.39164,15.31231 -55.64443,15.14954 -30.49148,0.65838 -86.8669,-17.40686 -80.92355,-2.65727 z"
       sodipodi:nodetypes="ccscc" />
    <path
       id="path4298"
       style="fill:#100f0d;fill-opacity:1;fill-rule:nonzero;stroke:none"
       d="m 182.3237,705.19961 c 1.5905,-16.67405 23.32194,-27.89708 36.34405,-34.38769 20.82396,-10.38036 44.24361,-17.07385 67.4852,-18.54953 9.98395,-0.63344 20.23076,-0.0289 29.79643,3.0553 11.06222,3.56882 16.42785,10.98312 22.62572,20.32942 19.24357,36.91474 35.88006,100.70709 41.10965,107.37834 26.87961,8.39395 55.18836,69.1694 56.65939,106.66793 0.26012,6.62 1.82231,19.59085 -4.80889,24.01142 -4.55412,3.03673 -11.56809,0.31242 -16.0627,-1.39324 -19.63759,-7.45362 -37.44139,-19.8615 -56.28638,-29.05667 -21.3389,-10.41384 -45.2179,-19.42138 -69.35981,-16.65578 -13.57275,1.55495 -22.67953,7.37817 -31.51994,17.4207 -10.66284,12.11244 -19.32433,26.01848 -28.08867,39.51782 -8.12213,12.50841 -14.75302,25.6124 -24.25011,37.14692 -12.85289,19.34016 -14.00366,15.1469 -19.1342,12.47968 -11.55735,-61.925 -7.17718,-177.39788 -4.50968,-267.96463 0.0714,-2.42629 -2.59697,-6.2808 -2.55587,-7.66629 -2.24099,76.05047 -7.90061,145.5074 -4.27991,221.50135 1.40551,11.03083 4.00777,56.1516 15.35482,60.92136 5.77128,1.08447 11.67919,-6.2277 14.91234,-9.9013 15.24124,-17.32188 26.37318,-38.33229 39.35325,-57.31809 6.18008,-9.03766 12.66108,-18.03084 20.39704,-25.81544 6.86871,-6.91034 14.46025,-10.20376 24.02958,-11.90653 23.75667,-4.22906 48.26971,5.03131 69.40462,14.97442 19.42959,9.14053 37.45176,21.33016 57.25102,29.65403 4.97107,2.08856 11.52893,4.70892 16.88908,2.54539 6.35733,-2.56588 5.6809,-13.04792 5.85164,-18.28978 0.92334,-28.52143 -8.44147,-57.63436 -18.71576,-83.87027 -13.92522,-35.56051 -29.48513,-32.36144 -35.71334,-41.59429 -13.98461,-23.85054 -31.29339,-90.94662 -49.41155,-112.62614 -5.65033,-8.51716 -10.80714,-14.5254 -20.56712,-18.15922 -25.82627,-9.61666 -58.453,-0.83409 -83.0446,8.50111 -12.83551,4.87278 -25.40661,11.13767 -36.31604,19.53405 -6.89949,5.31172 -14.52098,12.67495 -15.39507,21.84935 -0.22698,2.38005 2.67938,6.38421 2.55587,7.66629"
       sodipodi:nodetypes="ccsccccsscsscccscccccscscsccccsscsc" />
    <path
       sodipodi:nodetypes="ccccsc"
       id="path4302"
       style="fill:#100f0d;fill-opacity:1;fill-rule:nonzero;stroke:none"
       d="m 329.46763,660.83704 c 6.97136,2.68003 -3.91696,-4.60394 -23.55729,-9.22179 -31.54984,-7.42937 -85.69845,-8.00844 -124.62103,50.56673 -2.22693,3.354 -0.49673,-48.98989 3.20954,-101.91964 3.74414,-53.5847 6.35618,-77.40148 39.18883,-78.41956 36.86805,-1.14321 105.77995,138.99426 105.77995,138.99426" />
    <path
       id="path4304"
       style="fill:#cec3c6;fill-opacity:1;fill-rule:nonzero;stroke:none"
       d="m 219.50016,692.93564 c 16.16986,32.91464 44.18525,44.43803 71.77968,31.36412 11.18336,-7.15695 30.25293,-24.2575 19.49755,-51.42193 -4.23534,-6.49185 -8.64011,-5.18144 -14.51343,-4.33054 -13.77036,1.99569 -28.17721,3.81225 -41.67127,7.15268 -13.2694,3.28253 -26.2845,8.02007 -39.36189,11.98419"
       sodipodi:nodetypes="cccscc" />
    <path
       id="path4306"
       style="fill:#ed1d24;fill-opacity:1;fill-rule:nonzero;stroke:none"
       d="m 307.18186,666.00672 c 7.11806,23.48209 -7.42882,48.67836 -32.49312,56.27604 -25.06298,7.59726 -51.15006,-5.28174 -58.26812,-28.76384 -7.11806,-23.48208 7.42788,-48.67661 32.49086,-56.27388 25.06432,-7.59768 51.15232,5.27959 58.27038,28.76168" />
    <path
       id="path4308"
       style="fill:#100f0d;fill-opacity:1;fill-rule:nonzero;stroke:none"
       d="m 305.17736,666.61434 c 6.62715,23.74472 -8.44354,46.31283 -31.09626,53.6639 -22.65176,7.34935 -48.19984,-4.5987 -55.65598,-27.36693 -7.67055,-23.42259 9.23153,-46.56775 31.09399,-53.66177 22.65311,-7.34975 48.20211,4.59657 55.65825,27.3648 0.84013,2.56437 4.85071,1.35449 4.009,-1.21524 -8.38513,-25.60186 -35.73622,-37.24996 -60.8825,-30.15856 -25.14588,7.09272 -40.928,33.66294 -33.88776,58.88601 7.24177,25.94554 36.61012,37.00403 60.88025,30.16071 25.14588,-7.09274 40.92934,-33.66335 33.89001,-58.88816 -0.72631,-2.60324 -4.73374,-1.38264 -4.009,1.21524" />
    <path
       id="path4310"
       style="fill:#ffffff;fill-opacity:1;fill-rule:nonzero;stroke:none"
       d="m 232.37594,659.23765 c 2.03627,-5.45513 20.59453,-19.31848 22.04927,-6.97967 0.92962,7.8901 -21.3083,16.82391 -21.75989,7.78378" />
    <path
       id="path4312"
       style="fill:#991a21;fill-opacity:1;fill-rule:nonzero;stroke:none"
       d="m 291.38801,698.78799 c 1.37542,3.51489 -6.41458,9.84863 -17.40007,14.14742 -10.98678,4.29932 -21.00658,4.93486 -22.38202,1.41997 -1.37594,-3.51618 6.41407,-9.84992 17.40084,-14.14923 10.98549,-4.29881 21.00529,-4.93435 22.38125,-1.41816" />
    <path
       id="path4314"
       style="fill:#100f0d;fill-opacity:1;fill-rule:nonzero;stroke:none"
       d="m 191.81102,725.88864 c 0.51222,12.26043 -2.32047,22.3335 -6.32806,22.49919 -4.00814,0.16878 -7.67209,-9.63192 -8.18526,-21.89062 -0.51141,-12.25777 2.32128,-22.33082 6.32942,-22.49959 4.00719,-0.16705 7.67155,9.635 8.1839,21.89102" />
    <path
       id="path4316"
       style="fill:#100f0d;fill-opacity:1;fill-rule:nonzero;stroke:none"
       d="m 223.03329,776.84755 c -4.08163,5.11002 -10.83069,8.87017 -16.80325,12.02424 3.17143,1.423 5.85552,3.27421 7.71844,5.60688 l 0.3731,-0.27524 c 12.17605,5.38399 25.4232,6.56051 38.50194,7.89518 3.61139,0.37026 12.62098,0.1765 14.33301,3.57377 2.31323,4.5831 -3.54798,7.15248 -7.14346,8.37066 -9.272,3.1356 -22.9683,1.20179 -32.55638,1.17029 -1.37881,-0.006 -5.19153,-0.2252 -9.48806,-0.843 -0.0974,0.8766 -0.22816,1.75656 -0.37784,2.63434 8.39151,5.63258 21.27357,8.86481 28.54759,12.26848 3.37045,1.57592 14.22491,4.57336 16.05058,7.82659 4.11852,7.3411 -4.05875,10.06307 -9.88184,10.05161 -13.20266,-0.0231 -29.66814,-6.98081 -40.63946,-13.56367 l -0.0863,-0.0549 c -1.20714,2.00536 -2.55424,3.85145 -4.02599,5.47832 3.9617,5.52228 10.20681,10.31523 14.61163,13.70943 7.54922,5.81743 16.09854,14.83016 -0.01,14.80204 -7.4517,-0.0116 -27.07995,-9.79106 -36.14995,-20.67484 -10.58812,-1.08728 -18.91244,-8.37791 -27.09496,-14.96084 -4.59067,-6.75839 -7.33738,-14.62433 -7.24379,-23.2554 1.73693,-9.20958 7.07159,-17.0117 17.20514,-21.01683 2.96288,-2.08548 6.12713,-3.88871 8.76026,-5.05345 7.31795,-3.24003 16.35048,-6.09502 23.35128,-9.62144 7.80239,-3.93097 8.55035,-10.58877 14.71661,-15.73614 14.33296,-11.97003 13.90922,11.40907 7.33138,19.64378" />
    <path
       style="fill:#100f0d;fill-opacity:1;fill-rule:nonzero;stroke:none"
       d="m 174.04299,806.49172 c -17.57884,-8.32139 -28.49524,-8.4179 -41.55767,-22.57243 -7.2408,-7.84617 -17.54544,-12.88787 -5.79452,-24.11451 8.58817,-10.21785 25.87129,-19.46886 39.21826,-24.29605 4.78109,-0.72236 11.85738,-3.95527 16.56013,-5.03107 5.32193,-1.84959 5.83734,-10.06818 0.7859,-12.5656 -5.16987,-2.06019 -13.07854,3.6342 -18.46288,3.67176 -15.458,4.31593 -26.55983,11.07024 -41.5567,20.63788 -16.81561,10.72794 -23.68371,26.3321 -9.7413,43.2844 15.80863,13.91605 34.53433,24.02989 53.43338,33.08567 4.16365,2.99162 10.78726,0.34256 11.2051,-4.90224 0.38941,-2.95906 -1.34243,-6.02317 -4.09015,-7.19812"
       id="path4358"
       sodipodi:nodetypes="cscccccscccc" />
  </g>
</svg>
